<?xml version="1.0" encoding="utf-8"?>
<!-- Generator: Adobe Illustrator 16.0.0, SVG Export Plug-In . SVG Version: 6.00 Build 0)  -->
<!DOCTYPE svg PUBLIC "-//W3C//DTD SVG 1.1//EN" "http://www.w3.org/Graphics/SVG/1.1/DTD/svg11.dtd">
<svg version="1.1" id="Layer_1" xmlns="http://www.w3.org/2000/svg" xmlns:xlink="http://www.w3.org/1999/xlink" x="0px" y="0px"
	 width="500px" height="500px" viewBox="0 0 500 500" style="enable-background:new 0 0 500 500;" xml:space="preserve">
<g>
	<path style="fill-rule:evenodd;clip-rule:evenodd;fill:#FFFFFF;" d="M471.796,250.148
		c-0.365,123.548-100.426,221.772-222.064,221.61c-122.601-0.162-221.808-99.794-221.526-222.3
		c0.28-121.35,98.5-221.318,222.022-221.211C372.79,28.354,471.621,127.47,471.796,250.148z M249.878,348.15
		c40.769,0,81.54,0,122.309,0c0.902,0,1.805,0.015,2.706-0.017c4.95-0.162,9.332-3.784,10.356-8.593
		c0.298-1.392,0.215-2.822,0.215-4.238c0-56.873,0.002-113.747,0-170.618c0-0.772,0.013-1.546-0.021-2.318
		c-0.216-5.06-3.711-9.186-8.646-10.288c-1.34-0.299-2.682-0.293-4.033-0.293c-81.862,0-163.723,0-245.586,0
		c-0.579,0-1.16-0.008-1.739,0.004c-5.188,0.106-9.517,3.644-10.714,8.677c-0.32,1.342-0.292,2.683-0.292,4.031
		c-0.004,56.936-0.003,113.875-0.003,170.81c0,0.709-0.009,1.418,0.01,2.125c0.132,4.547,3.123,8.603,7.398,10.133
		c1.622,0.582,3.282,0.586,4.958,0.586C167.821,348.15,208.851,348.15,249.878,348.15z"/>
	<path style="fill-rule:evenodd;clip-rule:evenodd;fill:#FFFFFF;" d="M155.659,178.412c62.818,0,125.635,0,188.552,0
		c-0.059,0.829-0.761,1.143-1.239,1.563c-6.529,5.736-13.073,11.455-19.617,17.172c-8.775,7.666-17.556,15.327-26.331,22.991
		c-13.819,12.066-27.638,24.134-41.454,36.206c-1.554,1.354-3.13,2.682-4.63,4.094c-0.715,0.672-1.195,0.66-1.929,0.007
		c-3.463-3.08-6.977-6.103-10.468-9.153c-13.917-12.15-27.835-24.3-41.749-36.455c-10.713-9.36-21.419-18.729-32.132-28.092
		c-2.52-2.201-5.049-4.396-7.572-6.597c-0.526-0.46-1.043-0.933-1.564-1.4C155.571,178.636,155.615,178.524,155.659,178.412z"/>
	<path style="fill-rule:evenodd;clip-rule:evenodd;fill:#FFFFFF;" d="M343.031,325.592c-62,0-123.517,0-185.42,0
		c1.865-1.688,3.455-3.146,5.066-4.586c8.75-7.792,17.509-15.575,26.255-23.372c11.006-9.812,22.007-19.628,33.003-29.448
		c1.366-1.219,1.239-0.92,2.324,0.03c5.909,5.175,11.844,10.318,17.734,15.516c2.045,1.803,4.329,3.021,7.062,3.233
		c3.174,0.246,5.959-0.761,8.351-2.854c6.158-5.378,12.319-10.756,18.466-16.145c1.534-1.344,1.266-1.163,2.603,0.031
		c15.569,13.88,31.135,27.769,46.706,41.646c5.239,4.671,10.488,9.328,15.73,13.992
		C341.525,324.184,342.117,324.752,343.031,325.592z"/>
	<path style="fill-rule:evenodd;clip-rule:evenodd;fill:#FFFFFF;" d="M136.592,314.547c0-41.025,0-81.696,0-122.388
		c0.727-0.323,1.017,0.359,1.403,0.695c8.012,6.973,16.008,13.965,24.01,20.952c12.849,11.222,25.698,22.446,38.548,33.667
		c1.503,1.313,3.01,2.624,4.494,3.956c1.22,1.094,1.216,1.121,0.059,2.159c-2.396,2.148-4.803,4.283-7.207,6.428
		c-7.693,6.845-15.392,13.691-23.08,20.546c-12.396,11.054-24.786,22.118-37.18,33.174
		C137.401,313.945,137.137,314.124,136.592,314.547z"/>
	<path style="fill-rule:evenodd;clip-rule:evenodd;fill:#FFFFFF;" d="M363.258,192.015c0,40.551,0,81.01,0,121.636
		c-0.762-0.279-1.188-0.751-1.65-1.161c-17.248-15.388-34.497-30.777-51.746-46.161c-4.948-4.416-9.903-8.822-14.853-13.24
		c-1.026-0.912-1.035-0.939,0.018-1.863c8.239-7.204,16.485-14.402,24.729-21.6c8.825-7.708,17.652-15.415,26.479-23.124
		c5.332-4.659,10.659-9.326,15.992-13.986C362.462,192.309,362.68,192.06,363.258,192.015z"/>
</g>
</svg>
