<?xml version="1.0" encoding="utf-8"?>
<!-- Generator: Adobe Illustrator 16.0.0, SVG Export Plug-In . SVG Version: 6.00 Build 0)  -->
<!DOCTYPE svg PUBLIC "-//W3C//DTD SVG 1.1//EN" "http://www.w3.org/Graphics/SVG/1.1/DTD/svg11.dtd">
<svg version="1.1" id="Layer_1" xmlns="http://www.w3.org/2000/svg" xmlns:xlink="http://www.w3.org/1999/xlink" x="0px" y="0px"
	 width="500px" height="500px" viewBox="0 0 500 500" style="enable-background:new 0 0 500 500;" xml:space="preserve">
<path style="fill:#FFFFFF;" d="M465.421,266.729c-0.774,6.658-1.451,13.33-2.343,19.973c-3.938,29.309-13.947,56.473-29.629,81.463
	c-17.524,27.927-39.859,51.256-67.802,69.01c-14.608,9.282-30.192,16.565-46.565,22.079c-9.072,3.056-15.37-1.642-15.417-11.188
	c-0.093-18.648,0.011-37.299-0.049-55.945c-0.03-9.572-0.568-19.159-4.81-27.933c-2.338-4.836-5.599-9.229-8.418-13.781
	c7.855-1.471,16.276-2.592,24.456-4.665c21.979-5.571,41.629-15.281,55.029-34.46c9.847-14.092,14.35-30.281,16.339-47.158
	c1.546-13.114,1.983-26.273-0.771-39.333c-2.771-13.142-8.425-24.921-17.238-35.043c-2.339-2.687-2.529-4.815-1.441-8.152
	c5.647-17.331,3.221-34.301-3.217-50.916c-0.375-0.967-1.961-1.89-3.102-2.066c-7.64-1.179-14.844,0.992-21.548,4.144
	c-10.74,5.052-21.111,10.889-31.759,16.151c-2.042,1.009-4.838,1.704-6.945,1.178c-33.443-8.328-66.846-8.404-100.229,0.145
	c-2.876,0.736-5.048,0.226-7.429-1.357c-13.39-8.905-27.815-15.575-43.386-19.699c-0.406-0.107-0.808-0.241-1.22-0.318
	c-9.779-1.837-11.349-0.828-14.146,8.661c-4.549,15.43-5.41,30.814,0.008,46.263c0.429,1.223-0.018,3.358-0.884,4.342
	c-17.766,20.157-22.008,44.078-19.802,69.875c1.337,15.639,4.952,30.654,11.929,44.775c9.642,19.516,25.978,31.527,45.825,38.459
	c11.921,4.164,24.697,5.879,37.09,8.688c0.631,0.143,1.277,0.221,1.346,0.232c-3.148,5.734-6.366,11.375-9.338,17.142
	c-0.943,1.828-1.648,3.976-1.738,6.007c-0.212,4.827-2.746,7.09-7.197,8.241c-13.528,3.498-26.938,5.843-39.825-2.122
	c-6.838-4.229-11.935-10.109-15.97-16.977c-6.208-10.564-14.929-18.271-26.694-21.78c-4.236-1.265-9.062-1.021-13.574-0.735
	c-3.412,0.217-4.148,2.688-1.971,5.357c1.841,2.258,3.693,4.822,6.131,6.224c11.454,6.582,17.874,17.103,23.062,28.606
	c3.056,6.777,5.804,13.609,11.566,18.771c9.056,8.111,19.977,11.183,31.667,11.705c10.137,0.455,20.311,0.095,31.159,0.095
	c0,7.242-0.019,15.481,0.008,23.722c0.014,4.347,0.17,8.692,0.151,13.039c-0.044,10.072-6.69,14.938-16.234,11.686
	c-31.83-10.846-59.844-27.943-83.329-52.062c-22.771-23.386-40.171-50.244-50.903-81.241c-6.085-17.574-9.619-35.651-11.026-54.172
	c-0.125-1.647-0.436-3.283-0.661-4.924c0-8.416,0-16.831,0-25.246c0.272-1.484,0.586-2.962,0.808-4.453
	c1.443-9.689,2.221-19.529,4.402-29.048c12.205-53.282,40.587-96.045,84.886-128.039c30.731-22.193,65.021-35.264,102.865-38.955
	c31.996-3.121,63.312-0.129,93.607,10.664c44.236,15.758,79.96,42.936,106.609,81.714c17.611,25.629,29.406,53.709,34.383,84.503
	c1.269,7.843,2.195,15.741,3.279,23.614C465.421,249.898,465.421,258.312,465.421,266.729z"/>
</svg>
