<?xml version="1.0" encoding="utf-8"?>
<!-- Generator: Adobe Illustrator 21.1.0, SVG Export Plug-In . SVG Version: 6.00 Build 0)  -->
<svg version="1.1" id="Layer_1" xmlns="http://www.w3.org/2000/svg" xmlns:xlink="http://www.w3.org/1999/xlink" x="0px" y="0px"
	 viewBox="0 0 8554.3 1728" style="enable-background:new 0 0 8554.3 1728;" xml:space="preserve">
<style type="text/css">
	.st0{fill:none;stroke:#231F20;stroke-miterlimit:10;}
	.st1{fill:#231F20;stroke:#231F20;stroke-miterlimit:10;}
</style>
<path class="st0" d="M6773,1050h-123.2c6.7,67,45.2,133.9,123.2,144.9"/>
<path class="st1" d="M843,835.9v-2.4c66-30.5,123.4-88,123.4-189.4c0-149.1-101.4-249.3-296.9-249.3h-3v156.8
	c66.9,3.7,116.6,37.2,116.6,108.4c0,64.9-45.9,103-116.6,110.9v150.7c102.9,1.7,138.6,61.9,138.6,119.7c0,61.1-37,110.2-138.6,115.6
	v156.9h10.3c189.4,0,318.9-100.2,318.9-268.8C995.7,930,924.9,855.5,843,835.9z"/>
<polygon class="st1" points="526.5,1157.3 526.5,921.5 630.5,921.5 630.5,772.4 526.5,772.4 526.5,551.2 630.5,551.2 630.5,394.8 
	343.2,394.8 343.2,1313.7 630.5,1313.7 630.5,1157.3 "/>
<path class="st1" d="M1449.5,669v134.4c77.1,6.3,119.6,75.7,125.5,134h-125.5v112.4h301.4v-48.9
	C1750.9,805.3,1628.1,677.8,1449.5,669z"/>
<path class="st1" d="M1291.4,1049.8h122.1V937.4h-122.1c8.9-64.2,46.8-122.4,122.1-132.8V668.9c-180.8,7.1-305.4,135-305.4,332.1
	c0,194.7,124.6,322.5,305.4,329.6v-135.9C1336,1183,1298.1,1116.4,1291.4,1049.8z"/>
<path class="st1" d="M1735,1135.3l-171.1-13.4c-22.7,45.4-65.4,70.7-114.5,74.1v134.4C1587.7,1324.6,1694.2,1257.8,1735,1135.3z"/>
<path class="st1" d="M1904.9,603.8v81.9h-89.2v134.4h89.2v493.7h176V820.1h101.4V685.6h-101.4v-97.8c0-35.4,22-51.3,52.5-51.3h48.9
	V387.5h-34.2C1992.9,387.5,1904.9,427.8,1904.9,603.8z"/>
<path class="st1" d="M2443.8,999.7c0-101.8,39.6-178.9,120.7-188.4V668.9c-180.1,7.7-304,135.4-304,330.8
	c0,195.4,124,323.1,304,330.8v-142.4C2483.3,1178.6,2443.8,1101.4,2443.8,999.7z"/>
<path class="st1" d="M2600.5,669v142.5c80.3,10.2,119.4,87,119.4,188.2c0,101.2-39.2,178.1-119.4,188.2v142.5
	c179.4-8.2,302.7-135.8,302.7-330.7C2903.2,804.7,2779.9,677.2,2600.5,669z"/>
<path class="st1" d="M3209.9,806.6h-2.4v-121h-168.6v628.1h176v-307.9c0-111.2,70.9-166.2,161.3-166.2h39.1V668.5h-24.4
	C3307.7,668.5,3242.9,717.4,3209.9,806.6z"/>
<path class="st1" d="M3824.5,669.1v134.5c75.9,7.3,117.7,76,123.5,133.8h-123.5v112.4H4124v-48.9
	C4124,806,4002.1,678.8,3824.5,669.1z"/>
<path class="st1" d="M4108.1,1135.3l-171.1-13.4c-22.4,44.8-64.3,70.1-112.5,74v134.5C3961.8,1324,4067.5,1257.2,4108.1,1135.3z"/>
<path class="st1" d="M3664.5,1049.8h124V937.4h-124c8.9-64.8,47.5-123.4,124-133V668.8c-181.8,6.3-307.3,134.3-307.3,332.1
	c0,195.4,125.5,323.4,307.3,329.7v-135.7C3709.7,1184.1,3671.2,1117,3664.5,1049.8z"/>
<rect x="4626.2" y="394.8" class="st1" width="183.3" height="918.9"/>
<path class="st1" d="M5804.2,771.2h-2.4c-42.3-55.6-85.3-84.4-136.3-96.1v143.3c98.6,8.5,144.8,93.3,144.8,182.6
	c0,101-51.9,181.6-144.8,187.8v135.9c56.3-12.3,106.4-43.4,143.6-98.8h2.4v88h168.6V394.8h-176V771.2z"/>
<path class="st1" d="M5495,1003.4c0-89,45.8-173.7,134.5-184.6V669.6c-8.7-0.7-17.7-1.1-26.9-1.1c-180.9,0-290.8,155.2-290.8,329.9
	c0,174.7,118.5,332.4,293.3,332.4c8.2,0,16.4-0.3,24.5-1v-142.5C5541.4,1174.9,5495,1094.3,5495,1003.4z"/>
<path class="st1" d="M6245.3,387.5c-58.7,0-102.6,52.5-102.6,103.9c0,48.9,44,101.4,102.6,101.4c56.2,0,102.6-50.1,102.6-103.9
	C6348,432.7,6297.9,387.5,6245.3,387.5z"/>
<rect x="6157.4" y="685.6" class="st1" width="176" height="628.1"/>
<path class="st1" d="M7093.4,1135.3l-171.1-13.4c-22.4,44.9-64.5,70.2-112.8,74v134.5C6946.9,1324.1,7052.7,1257.3,7093.4,1135.3z"
	/>
<path class="st1" d="M6649.8,1049.8h123.7V937.4h-123.7c8.9-64.7,47.4-123.3,123.7-133V668.8c-181.7,6.4-307,134.4-307,332.1
	c0,195.3,125.3,323.2,307,329.7v-135.7C6695,1183.9,6656.5,1116.9,6649.8,1049.8z"/>
<path class="st1" d="M6809.5,669.1v134.4c76.1,7.1,118,75.9,123.8,133.8h-123.8v112.4h299.8v-48.9
	C7109.3,805.9,6987.3,678.6,6809.5,669.1z"/>
<path class="st1" d="M7330.5,1123.1c-56.2,0-102.6,46.4-102.6,102.6s46.4,102.6,102.6,102.6s102.6-46.4,102.6-102.6
	S7386.7,1123.1,7330.5,1123.1z"/>
<path class="st1" d="M7670.2,1123.1c-56.2,0-102.6,46.4-102.6,102.6s46.4,102.6,102.6,102.6s102.6-46.4,102.6-102.6
	S7726.4,1123.1,7670.2,1123.1z"/>
<path class="st1" d="M8009.9,1123.1c-56.2,0-102.6,46.4-102.6,102.6s46.4,102.6,102.6,102.6c56.2,0,102.6-46.4,102.6-102.6
	S8066.1,1123.1,8009.9,1123.1z"/>
</svg>
