<?xml version="1.0" encoding="utf-8"?>
<!-- Generator: Adobe Illustrator 21.1.0, SVG Export Plug-In . SVG Version: 6.00 Build 0)  -->
<svg version="1.1" id="Layer_3" xmlns="http://www.w3.org/2000/svg" xmlns:xlink="http://www.w3.org/1999/xlink" x="0px" y="0px"
	 viewBox="0 0 1409.7 336" style="enable-background:new 0 0 1409.7 336;" xml:space="preserve">
<style type="text/css">
	.st0{fill:#231F20;}
</style>
<g>
	<g>
		<path class="st0" d="M87.5,111.6h34.4c20.6,0,31.3,10.6,31.3,26.3c0,10.7-6.1,16.7-13,20v0.3c8.6,2.1,16.1,9.9,16.1,22
			c0,17.8-13.6,28.3-33.6,28.3H87.5V111.6z M118.5,151.4c9.1,0,15.3-4.1,15.3-11.8c0-8-5.9-11.5-13.6-11.5h-13.4v23.3H118.5z
			 M119.5,192c12.2,0,16.6-5.4,16.6-12.2c0-6.2-3.9-12.6-15.1-12.6h-14.3V192H119.5z"/>
		<path class="st0" d="M184.2,180.6c0.8,7.7,5.5,15.5,15.5,15.5c5.7,0,10.7-2.7,13.3-7.9l18,1.4c-4.5,13.5-16.6,20.6-32.2,20.6
			c-20,0-33.9-13.6-33.9-34.8c0-21.4,13.9-35,33.9-35c20,0,33.9,13.6,33.9,35v5.2H184.2z M214,168.8c-0.6-6.4-5.5-14.2-14.4-14.2
			c-9.7,0-14.4,6.7-15.5,14.2H214z"/>
		<path class="st0" d="M245.6,156.4h-9.4v-14.2h9.4v-8.6c0-18.5,9.3-22.8,25.6-22.8h3.6v15.7h-5.2c-3.2,0-5.5,1.7-5.5,5.4v10.3h10.7
			v14.2h-10.7v52h-18.5V156.4z"/>
		<path class="st0" d="M313.7,210.3c-20,0-33.9-13.6-33.9-34.9c0-21.2,13.9-34.9,33.9-34.9c20,0,33.9,13.6,33.9,34.9
			C347.6,196.6,333.6,210.3,313.7,210.3z M313.7,155.4c-9.8,0-14.5,8.5-14.5,20c0,11.5,4.8,20,14.5,20c9.8,0,14.5-8.5,14.5-20
			C328.2,163.9,323.5,155.4,313.7,155.4z"/>
		<path class="st0" d="M358.6,142.3h17.8V155h0.3c3.5-9.4,10.3-14.5,19.1-14.5h2.6v18h-4.1c-9.5,0-17,5.8-17,17.5v32.4h-18.5V142.3z
			"/>
		<path class="st0" d="M421.3,180.6c0.8,7.7,5.5,15.5,15.5,15.5c5.7,0,10.7-2.7,13.3-7.9l18,1.4c-4.5,13.5-16.6,20.6-32.2,20.6
			c-20,0-33.9-13.6-33.9-34.8c0-21.4,13.9-35,33.9-35c20,0,33.9,13.6,33.9,35v5.2H421.3z M451.2,168.8c-0.6-6.4-5.5-14.2-14.4-14.2
			c-9.7,0-14.4,6.7-15.5,14.2H451.2z"/>
		<path class="st0" d="M516.2,111.6h19.3v96.8h-19.3V111.6z"/>
		<path class="st0" d="M634.7,199.2h-0.3c-5.3,7.9-13,11.1-21.5,11.1c-18.4,0-30.9-16.6-30.9-35c0-18.4,11.6-34.8,30.6-34.8
			c8.5,0,14.8,2.7,21,10.8h0.3v-39.7h18.5v96.8h-17.8V199.2z M617.5,156.2c-10.7,0-16.2,9.5-16.2,19.6c0,10.4,5.8,19.6,16.7,19.6
			c10.6,0,16.5-8.8,16.5-19.8C634.5,165.6,629.1,156.2,617.5,156.2z"/>
		<path class="st0" d="M677.1,110.9c5.5,0,10.8,4.8,10.8,10.7c0,5.7-4.9,10.9-10.8,10.9c-6.2,0-10.8-5.5-10.8-10.7
			C666.3,116.4,671,110.9,677.1,110.9z M667.9,142.3h18.5v66.2h-18.5V142.3z"/>
		<path class="st0" d="M716.5,180.6c0.8,7.7,5.5,15.5,15.5,15.5c5.7,0,10.7-2.7,13.3-7.9l18,1.4c-4.5,13.5-16.6,20.6-32.2,20.6
			c-20,0-33.9-13.6-33.9-34.8c0-21.4,13.9-35,33.9-35c20,0,33.9,13.6,33.9,35v5.2H716.5z M746.4,168.8c-0.6-6.4-5.5-14.2-14.4-14.2
			c-9.7,0-14.4,6.7-15.5,14.2H746.4z"/>
		<path class="st0" d="M811.4,111.6h19.3v96.8h-19.3V111.6z"/>
		<path class="st0" d="M925.5,164.6h-0.3l-11.6,43.9h-19.4l-21.1-66.2h19.7l10.9,45.1h0.3l11.7-45.1H935l11.7,45.1h0.3l10.9-45.1
			h19.7l-21.1,66.2h-19.4L925.5,164.6z"/>
		<path class="st0" d="M1028,199.8h-0.3c-6.2,8.1-14.9,10.4-22.7,10.4c-10.4,0-23.2-5.2-23.2-20.2c0-7.1,2.3-18.8,28.2-20.3l17.1-1
			v-3.1c0-7.9-4.9-11.7-13-11.7c-7.6,0-12.1,3.9-12.5,9.8h-17.8c0.6-10.2,7.9-23.2,31-23.2c16.4,0,30,6.2,30,21.4v38.4
			c0,3.5,0.4,5.8,0.9,8.2H1028V199.8z M1027.2,179.6l-15.5,1.4c-8.5,0.8-11.3,3.3-11.3,8.1c0,5.9,5.4,7.7,11.6,7.7
			c5.8,0,15.2-3.2,15.2-11.2V179.6z"/>
		<path class="st0" d="M1102.3,168.2c0-9.5-5.8-12.7-11.6-12.7c-7.5,0-12.1,6.4-12.1,15.5v37.6H1060v-66.2h17.8v8.6h0.3
			c5.5-8,12.1-10.4,19.6-10.4c16,0,23.2,10.3,23.2,23v44.9h-18.5V168.2z"/>
		<path class="st0" d="M1128.8,142.3h8.5v-19.1h18.5v19.1h9.8v14.2h-9.8v33.5c0,3,1.3,4.4,6.1,4.4c1.5,0,2.6-0.1,3.7-0.4v14.5
			c-3,0.4-5.9,0.8-8.9,0.8c-12.1,0-19.4-3-19.4-17.3v-35.5h-8.5V142.3z"/>
		<path class="st0" d="M1201,142.3h8.5v-19.1h18.5v19.1h9.8v14.2h-9.8v33.5c0,3,1.3,4.4,6.1,4.4c1.5,0,2.6-0.1,3.7-0.4v14.5
			c-3,0.4-5.9,0.8-8.9,0.8c-12.1,0-19.4-3-19.4-17.3v-35.5h-8.5V142.3z"/>
		<path class="st0" d="M1277.6,210.3c-20,0-33.9-13.6-33.9-34.9c0-21.2,13.9-34.9,33.9-34.9c20,0,33.9,13.6,33.9,34.9
			C1311.5,196.6,1297.6,210.3,1277.6,210.3z M1277.6,155.4c-9.8,0-14.5,8.5-14.5,20c0,11.5,4.8,20,14.5,20c9.8,0,14.5-8.5,14.5-20
			C1292.2,163.9,1287.4,155.4,1277.6,155.4z"/>
	</g>
</g>
</svg>
