<?xml version="1.0" encoding="utf-8"?>
<!-- Generator: Adobe Illustrator 21.1.0, SVG Export Plug-In . SVG Version: 6.00 Build 0)  -->
<svg version="1.1" id="Layer_1" xmlns="http://www.w3.org/2000/svg" xmlns:xlink="http://www.w3.org/1999/xlink" x="0px" y="0px"
	 viewBox="0 0 800 832" style="enable-background:new 0 0 800 832;" xml:space="preserve">
<style type="text/css">
	.st0{fill:#CD8E50;}
	.st1{fill:#35727E;}
	.st2{fill:#CE5D51;}
	.st3{fill:#3C9B51;}
	.st4{fill:#EEEEEE;}
</style>
<polyline class="st0" points="409.1,478.3 214.6,11.2 255.2,12.3 445.5,469.4 "/>
<polyline class="st1" points="510.5,529.1 295.8,13.3 336.2,14.6 547,520.3 "/>
<g>
	<polygon class="st0" points="214.1,196.5 232.7,164.4 785.1,481.9 764.1,513.8 	"/>
	<polygon class="st1" points="123.5,231 142,198.9 781.1,567.8 780.5,610 	"/>
</g>
<polygon class="st2" points="9.2,441.4 25.4,407.6 439.5,692.5 413.5,719.7 "/>
<image style="display:none;overflow:visible;" width="216" height="126" id="Layer_2_2_" xlink:href="3D339AEAAB1DE621.png"  transform="matrix(0.3939 0 0 0.3939 171.4501 716.0206)">
</image>
<polygon class="st3" points="39.1,550.9 54.9,517.8 445.5,786.6 408.4,806.2 "/>
<image style="overflow:visible;" width="1462" height="1817" id="Layer_1_1_" xlink:href="3D339AEAAB1DE627.png"  transform="matrix(0.3939 0 0 0.3939 95.0243 99.0986)">
</image>
<rect x="-565.5" y="155.6" class="st4" width="37.1" height="790.9"/>
<rect x="-491.3" y="155.6" class="st4" width="37.1" height="790.9"/>
<g>
	<polygon class="st2" points="780.2,526.4 785.1,481.9 416.1,676.4 413.5,719.7 	"/>
	<polygon class="st3" points="780.5,610 781.1,567.8 374,782.4 408.4,806.2 	"/>
</g>
<polygon class="st3" points="70,572.2 39.1,550.9 295.8,13.3 336.2,14.6 "/>
<polygon class="st2" points="40.1,462.7 9.3,441.4 214.6,11.2 255.2,12.3 "/>
</svg>
