<?xml version="1.0" encoding="utf-8"?>
<!-- Generator: Adobe Illustrator 21.1.0, SVG Export Plug-In . SVG Version: 6.00 Build 0)  -->
<svg version="1.1" xmlns="http://www.w3.org/2000/svg" xmlns:xlink="http://www.w3.org/1999/xlink" x="0px" y="0px"
	 viewBox="0 0 328.1 500" style="enable-background:new 0 0 328.1 500;" xml:space="preserve">
<style type="text/css">
	.st0{fill:#CE5D51;}
	.st1{fill:#CD8E50;}
	.st2{fill:url(#SVGID_1_);}
	.st3{fill:url(#SVGID_2_);}
	.st4{fill:url(#SVGID_3_);}
	.st5{fill:url(#SVGID_4_);}
</style>
<g id="Layer_1">
	<g>
		<g>
			<polygon class="st0" points="209,500 179,500 179,405.2 209,375.2 			"/>
			<polygon class="st1" points="179,447.6 179,405.2 253.5,330.7 253.5,373.2 			"/>
			<linearGradient id="SVGID_1_" gradientUnits="userSpaceOnUse" x1="194.0433" y1="328.7069" x2="194.0433" y2="106.5673">
				<stop  offset="0.375" style="stop-color:#CD8E50"/>
				<stop  offset="0.4889" style="stop-color:#DBAF82"/>
				<stop  offset="0.6059" style="stop-color:#E8CBAF"/>
				<stop  offset="0.7189" style="stop-color:#F2E2D2"/>
				<stop  offset="0.825" style="stop-color:#F9F2EB"/>
				<stop  offset="0.9215" style="stop-color:#FDFCFA"/>
				<stop  offset="1" style="stop-color:#FFFFFF"/>
			</linearGradient>
			<polygon class="st2" points="209,328.7 179,298.7 179,106.6 209,106.6 			"/>
			<polygon class="st1" points="238.5,499.5 268.5,499.5 268.5,404.7 238.5,374.7 			"/>
			<polygon class="st0" points="268.5,447.1 268.5,404.7 194,330.2 194,372.7 			"/>
			<linearGradient id="SVGID_2_" gradientUnits="userSpaceOnUse" x1="253.5071" y1="328.2069" x2="253.5071" y2="106.0673">
				<stop  offset="0.375" style="stop-color:#CE5D51"/>
				<stop  offset="0.4872" style="stop-color:#DC8B82"/>
				<stop  offset="0.6046" style="stop-color:#E8B4AF"/>
				<stop  offset="0.7179" style="stop-color:#F2D5D2"/>
				<stop  offset="0.8244" style="stop-color:#F9ECEB"/>
				<stop  offset="0.9213" style="stop-color:#FEFAFA"/>
				<stop  offset="1" style="stop-color:#FFFFFF"/>
			</linearGradient>
			<polygon class="st3" points="238.5,328.2 268.5,298.2 268.5,106.1 238.5,106.1 			"/>
			<polygon class="st1" points="194,330.2 194,372.7 268.5,298.2 268.5,255.8 			"/>
			<polygon class="st0" points="253.5,330.7 253.5,373.2 179,298.7 179,256.3 			"/>
		</g>
		<g>
			<polygon class="st0" points="89.6,0 59.6,0 59.6,94.8 89.6,124.8 			"/>
			<polygon class="st1" points="59.6,52.4 59.6,94.8 134,169.3 134,126.8 			"/>
			
				<linearGradient id="SVGID_3_" gradientUnits="userSpaceOnUse" x1="74.5794" y1="341.2679" x2="74.5794" y2="119.1283" gradientTransform="matrix(1 0 0 -1 0 512.561)">
				<stop  offset="0.375" style="stop-color:#CD8E50"/>
				<stop  offset="0.4889" style="stop-color:#DBAF82"/>
				<stop  offset="0.6059" style="stop-color:#E8CBAF"/>
				<stop  offset="0.7189" style="stop-color:#F2E2D2"/>
				<stop  offset="0.825" style="stop-color:#F9F2EB"/>
				<stop  offset="0.9215" style="stop-color:#FDFCFA"/>
				<stop  offset="1" style="stop-color:#FFFFFF"/>
			</linearGradient>
			<polygon class="st4" points="89.6,171.3 59.6,201.3 59.6,393.4 89.6,393.4 			"/>
			<polygon class="st1" points="119,0.5 149,0.5 149,95.3 119,125.3 			"/>
			<polygon class="st0" points="149,52.9 149,95.3 74.6,169.8 74.6,127.3 			"/>
			
				<linearGradient id="SVGID_4_" gradientUnits="userSpaceOnUse" x1="134.0433" y1="340.7679" x2="134.0433" y2="118.6283" gradientTransform="matrix(1 0 0 -1 0 512.561)">
				<stop  offset="0.375" style="stop-color:#CE5D51"/>
				<stop  offset="0.4872" style="stop-color:#DC8B82"/>
				<stop  offset="0.6046" style="stop-color:#E8B4AF"/>
				<stop  offset="0.7179" style="stop-color:#F2D5D2"/>
				<stop  offset="0.8244" style="stop-color:#F9ECEB"/>
				<stop  offset="0.9213" style="stop-color:#FEFAFA"/>
				<stop  offset="1" style="stop-color:#FFFFFF"/>
			</linearGradient>
			<polygon class="st5" points="119,171.8 149,201.8 149,393.9 119,393.9 			"/>
			<polygon class="st1" points="74.6,169.8 74.6,127.3 149,201.8 149,244.2 			"/>
			<polygon class="st0" points="134,169.3 134,126.8 59.6,201.3 59.6,243.7 			"/>
		</g>
	</g>
</g>
<g id="Layer_2">
</g>
<g id="Layer_3">
</g>
</svg>
