<?xml version="1.0" encoding="utf-8"?>
<!-- Generator: Adobe Illustrator 21.1.0, SVG Export Plug-In . SVG Version: 6.00 Build 0)  -->
<svg version="1.1" id="Layer_1" xmlns="http://www.w3.org/2000/svg" xmlns:xlink="http://www.w3.org/1999/xlink" x="0px" y="0px"
	 viewBox="0 0 328.1 500" style="enable-background:new 0 0 328.1 500;" xml:space="preserve">
<style type="text/css">
	.st0{fill:#35727E;}
	.st1{fill:url(#SVGID_1_);}
	.st2{fill:url(#SVGID_2_);}
	.st3{fill:#3C9B51;}
	.st4{fill:url(#SVGID_3_);}
	.st5{fill:url(#SVGID_4_);}
</style>
<g>
	<polygon class="st0" points="88.8,500.1 58.8,500.1 58.8,456 88.8,426 	"/>
	<polygon class="st0" points="147.8,500.1 117.8,500.1 117.8,397 147.8,367 	"/>
	<linearGradient id="SVGID_1_" gradientUnits="userSpaceOnUse" x1="237.05" y1="397" x2="148.55" y2="308.5">
		<stop  offset="0.3577" style="stop-color:#35727E"/>
		<stop  offset="0.3778" style="stop-color:#3D7783"/>
		<stop  offset="0.6053" style="stop-color:#8FB1B8"/>
		<stop  offset="0.7918" style="stop-color:#CBDBDE"/>
		<stop  offset="0.9282" style="stop-color:#F1F5F6"/>
		<stop  offset="1" style="stop-color:#FFFFFF"/>
	</linearGradient>
	<polygon class="st1" points="208.1,426 178.1,456 178.1,279 208.1,250 	"/>
	<linearGradient id="SVGID_2_" gradientUnits="userSpaceOnUse" x1="297.8518" y1="337.1982" x2="208.8518" y2="248.1982">
		<stop  offset="0.3577" style="stop-color:#35727E"/>
		<stop  offset="0.3778" style="stop-color:#3D7783"/>
		<stop  offset="0.6053" style="stop-color:#8FB1B8"/>
		<stop  offset="0.7918" style="stop-color:#CBDBDE"/>
		<stop  offset="0.9282" style="stop-color:#F1F5F6"/>
		<stop  offset="1" style="stop-color:#FFFFFF"/>
	</linearGradient>
	<polygon class="st2" points="267.9,367 238.1,397 238.1,219 269.3,189 	"/>
	<polygon class="st3" points="267.9,367 238.1,397 117.8,397 147.8,367 	"/>
	<polygon class="st3" points="208.1,426 178.1,456 58.8,456 88.8,426 	"/>
</g>
<g>
	<polygon class="st0" points="239.3,0 269.3,0 269.3,44.1 239.3,74.1 	"/>
	<polygon class="st0" points="180.3,0 210.3,0 210.3,103.1 180.3,133.1 	"/>
	<linearGradient id="SVGID_3_" gradientUnits="userSpaceOnUse" x1="91.05" y1="103.0879" x2="179.55" y2="191.5879">
		<stop  offset="0.3577" style="stop-color:#35727E"/>
		<stop  offset="0.3778" style="stop-color:#3D7783"/>
		<stop  offset="0.6053" style="stop-color:#8FB1B8"/>
		<stop  offset="0.7918" style="stop-color:#CBDBDE"/>
		<stop  offset="0.9282" style="stop-color:#F1F5F6"/>
		<stop  offset="1" style="stop-color:#FFFFFF"/>
	</linearGradient>
	<polygon class="st4" points="120.1,74.1 150.1,44.1 150.1,221.1 120.1,250.1 	"/>
	<linearGradient id="SVGID_4_" gradientUnits="userSpaceOnUse" x1="30.2482" y1="162.8897" x2="119.2482" y2="251.8897">
		<stop  offset="0.3577" style="stop-color:#35727E"/>
		<stop  offset="0.3778" style="stop-color:#3D7783"/>
		<stop  offset="0.6053" style="stop-color:#8FB1B8"/>
		<stop  offset="0.7918" style="stop-color:#CBDBDE"/>
		<stop  offset="0.9282" style="stop-color:#F1F5F6"/>
		<stop  offset="1" style="stop-color:#FFFFFF"/>
	</linearGradient>
	<polygon class="st5" points="60.2,133.1 90.1,103.1 90.1,281.1 58.8,311.1 	"/>
	<polygon class="st3" points="60.2,133.1 90.1,103.1 210.3,103.1 180.3,133.1 	"/>
	<polygon class="st3" points="120.1,74.1 150.1,44.1 269.3,44.1 239.3,74.1 	"/>
</g>
</svg>
