<?xml version="1.0" encoding="utf-8"?>
<!-- Generator: Adobe Illustrator 21.1.0, SVG Export Plug-In . SVG Version: 6.00 Build 0)  -->
<svg version="1.1" id="Layer_1" xmlns="http://www.w3.org/2000/svg" xmlns:xlink="http://www.w3.org/1999/xlink" x="0px" y="0px"
	 viewBox="0 0 313.9 500" style="enable-background:new 0 0 313.9 500;" xml:space="preserve">
<style type="text/css">
	.st0{fill:#CE5D51;}
	.st1{fill:#CD8E50;}
	.st2{fill:#35727E;}
	.st3{fill:#3C9B51;}
</style>
<g>
	<polygon class="st0" points="21.9,235.4 0,255.4 0,25.3 21.9,38 	"/>
	<polygon class="st0" points="65.8,282.6 43.9,295.3 43.9,0 65.8,12.7 	"/>
	<polygon class="st1" points="233.8,160.3 255.7,173 43.9,295.3 43.9,269.9 	"/>
	<polygon class="st2" points="255.7,173 233.9,185.7 0,50.7 0,25.3 	"/>
	<polygon class="st1" points="233.9,109.6 255.7,122.3 0,269.9 0,244.6 	"/>
	<polygon class="st2" points="255.7,122.3 233.8,135 43.9,25.3 43.9,0 	"/>
	<polygon class="st0" points="21.9,38 0,25.3 0,73.2 21.9,73.2 	"/>
	<polygon class="st0" points="65.8,12.7 43.9,0 43.9,44.3 65.8,44.3 	"/>
</g>
<g>
	<polygon class="st3" points="292,264.6 313.9,244.6 313.9,474.7 292,462 	"/>
	<polygon class="st3" points="248.1,217.4 270.1,204.7 270.1,500 248.1,487.3 	"/>
	<polygon class="st2" points="80.2,339.7 58.2,327 270.1,204.7 270.1,230.1 	"/>
	<polygon class="st3" points="58.2,327 80.1,314.3 313.9,449.3 313.9,474.7 	"/>
	<polygon class="st2" points="80.1,390.4 58.2,377.7 313.9,230.1 313.9,255.4 	"/>
	<polygon class="st3" points="58.2,377.7 80.2,365 270.1,474.7 270.1,500 	"/>
	<polygon class="st3" points="292,462 313.9,474.7 313.9,426.8 292,426.8 	"/>
	<polygon class="st3" points="248.1,487.3 270.1,500 270.1,455.7 248.1,455.7 	"/>
</g>
</svg>
