<?xml version="1.0" encoding="utf-8"?>
<!-- Generator: Adobe Illustrator 21.1.0, SVG Export Plug-In . SVG Version: 6.00 Build 0)  -->
<svg version="1.1" id="Layer_1" xmlns="http://www.w3.org/2000/svg" xmlns:xlink="http://www.w3.org/1999/xlink" x="0px" y="0px"
	 viewBox="0 0 328.1 500" style="enable-background:new 0 0 328.1 500;" xml:space="preserve">
<style type="text/css">
	.st0{fill:#35727E;}
	.st1{fill:url(#SVGID_1_);}
	.st2{fill:url(#SVGID_2_);}
	.st3{fill:#3C9B51;}
</style>
<g>
	<polygon class="st0" points="57.2,500 22.6,500 127.6,318.1 144.9,348.1 	"/>
	<polygon class="st0" points="126.5,500 91.9,500 162.2,378.1 179.6,408.1 	"/>
</g>
<linearGradient id="SVGID_1_" gradientUnits="userSpaceOnUse" x1="-2.887" y1="498.3332" x2="218.7168" y2="114.5042" gradientTransform="matrix(1 0 0 -1 0 500)">
	<stop  offset="0.5494" style="stop-color:#35727E"/>
	<stop  offset="0.6131" style="stop-color:#5D8E98"/>
	<stop  offset="0.7309" style="stop-color:#A2BEC4"/>
	<stop  offset="0.8294" style="stop-color:#D4E1E4"/>
	<stop  offset="0.9037" style="stop-color:#F3F7F8"/>
	<stop  offset="0.9452" style="stop-color:#FFFFFF"/>
</linearGradient>
<polygon class="st1" points="231.7,378 205.7,393 0,36.7 0,0 13.5,0 "/>
<linearGradient id="SVGID_2_" gradientUnits="userSpaceOnUse" x1="57.2141" y1="514.2013" x2="268.5097" y2="148.2267" gradientTransform="matrix(1.0284 4.925260e-02 -4.925260e-02 -1.0853 27.5677 547.7499)">
	<stop  offset="0.5494" style="stop-color:#35727E"/>
	<stop  offset="0.6061" style="stop-color:#598B95"/>
	<stop  offset="0.7269" style="stop-color:#9FBCC2"/>
	<stop  offset="0.8278" style="stop-color:#D3E0E3"/>
	<stop  offset="0.9034" style="stop-color:#F3F7F7"/>
	<stop  offset="0.9452" style="stop-color:#FFFFFF"/>
</linearGradient>
<polygon class="st2" points="309.4,392.6 283.4,407.6 48.1,0 82.7,0 "/>
<polygon class="st3" points="162.2,378.1 179.6,408.1 0,408.1 0,378.1 "/>
<polygon class="st3" points="127.6,318.1 144.9,348.1 0,348.1 0,318.1 "/>
</svg>
