<?xml version="1.0" encoding="utf-8"?>
<!-- Generator: Adobe Illustrator 21.1.0, SVG Export Plug-In . SVG Version: 6.00 Build 0)  -->
<svg version="1.1" id="Layer_1" xmlns="http://www.w3.org/2000/svg" xmlns:xlink="http://www.w3.org/1999/xlink" x="0px" y="0px"
	 viewBox="0 0 328.1 500" style="enable-background:new 0 0 328.1 500;" xml:space="preserve">
<style type="text/css">
	.st0{fill:#3C9B51;}
	.st1{fill:#35727E;}
	.st2{fill:url(#SVGID_1_);}
	.st3{fill:url(#SVGID_2_);}
</style>
<g>
	<polygon class="st0" points="81.6,500 51.6,500 51.6,357.2 81.6,339.9 	"/>
	<polygon class="st0" points="141.6,500 111.6,500 111.6,322.6 141.6,305.3 	"/>
	<polygon class="st0" points="228.6,424.8 187.6,435.8 299.6,241.9 310.5,282.8 	"/>
	<polygon class="st0" points="206.6,342.8 163.8,352.8 277.6,159.9 288.6,200.9 	"/>
	<polygon class="st1" points="228.6,424.8 187.6,435.8 51.6,357.2 81.6,339.9 	"/>
	<polygon class="st1" points="206.6,342.8 163.8,352.8 111.6,322.6 137.5,303 	"/>
	<linearGradient id="SVGID_1_" gradientUnits="userSpaceOnUse" x1="264.0744" y1="109.4117" x2="122.1398" y2="147.443">
		<stop  offset="0.2278" style="stop-color:#35727E"/>
		<stop  offset="0.4053" style="stop-color:#78A1A9"/>
		<stop  offset="0.5769" style="stop-color:#B2C9CE"/>
		<stop  offset="0.7226" style="stop-color:#DCE7E9"/>
		<stop  offset="0.8367" style="stop-color:#F6F8F9"/>
		<stop  offset="0.9052" style="stop-color:#FFFFFF"/>
	</linearGradient>
	<polygon class="st2" points="277.6,159.9 288.6,200.9 108.6,97 97.6,56 	"/>
	<linearGradient id="SVGID_2_" gradientUnits="userSpaceOnUse" x1="286.0359" y1="191.3732" x2="144.1013" y2="229.4045">
		<stop  offset="0.2278" style="stop-color:#35727E"/>
		<stop  offset="0.4053" style="stop-color:#78A1A9"/>
		<stop  offset="0.5769" style="stop-color:#B2C9CE"/>
		<stop  offset="0.7226" style="stop-color:#DCE7E9"/>
		<stop  offset="0.8367" style="stop-color:#F6F8F9"/>
		<stop  offset="0.9052" style="stop-color:#FFFFFF"/>
	</linearGradient>
	<polygon class="st3" points="299.6,241.9 310.5,282.8 130.6,178.9 119.6,137.9 	"/>
</g>
</svg>
