<?xml version="1.0" encoding="utf-8"?>
<!-- Generator: Adobe Illustrator 21.1.0, SVG Export Plug-In . SVG Version: 6.00 Build 0)  -->
<svg version="1.1" id="Layer_1" xmlns="http://www.w3.org/2000/svg" xmlns:xlink="http://www.w3.org/1999/xlink" x="0px" y="0px"
	 viewBox="0 0 328.1 500" style="enable-background:new 0 0 328.1 500;" xml:space="preserve">
<style type="text/css">
	.st0{fill:#35727E;}
	.st1{fill:#3C9B51;}
	.st2{fill:url(#SVGID_1_);}
	.st3{fill:url(#SVGID_2_);}
</style>
<polygon class="st0" points="120,206.7 90,224 90,0 120,0 "/>
<polygon class="st0" points="180,172.1 150,189.4 150,0 180,0 "/>
<polygon class="st1" points="120,206.7 90,224 0,172.1 0,137.4 "/>
<polygon class="st1" points="180,172.1 150,189.4 0,102.8 0,68.1 "/>
<line class="st0" x1="120" y1="133" x2="120" y2="333"/>
<line class="st0" x1="90" y1="333" x2="90" y2="133"/>
<line class="st0" x1="180" y1="133" x2="180" y2="333"/>
<line class="st0" x1="150" y1="333" x2="150" y2="133"/>
<polygon class="st1" points="120,500 90,500 90,259.5 116,244.5 "/>
<polygon class="st1" points="180,500 150,500 150,225.4 180,207 "/>
<linearGradient id="SVGID_1_" gradientUnits="userSpaceOnUse" x1="90" y1="320.9875" x2="328.0865" y2="320.9875">
	<stop  offset="0.27" style="stop-color:#35727E"/>
	<stop  offset="0.5028" style="stop-color:#90B2B8"/>
	<stop  offset="0.7207" style="stop-color:#E0E9EB"/>
	<stop  offset="0.82" style="stop-color:#FFFFFF"/>
</linearGradient>
<polygon class="st2" points="328.1,361.5 328.1,397.5 90,260 116,244.5 "/>
<linearGradient id="SVGID_2_" gradientUnits="userSpaceOnUse" x1="150" y1="267.565" x2="328.0865" y2="267.565">
	<stop  offset="0.27" style="stop-color:#35727E"/>
	<stop  offset="0.5028" style="stop-color:#90B2B8"/>
	<stop  offset="0.7207" style="stop-color:#E0E9EB"/>
	<stop  offset="0.82" style="stop-color:#FFFFFF"/>
</linearGradient>
<polygon class="st3" points="328.1,293.7 328.1,328.2 150,225.4 180,207 "/>
</svg>
