<?xml version="1.0" encoding="utf-8"?>
<?xml-stylesheet href="../../css/main.css" type="text/css"?>
<!-- Generator: Adobe Illustrator 16.0.0, SVG Export Plug-In . SVG Version: 6.00 Build 0)  -->
<!DOCTYPE svg PUBLIC "-//W3C//DTD SVG 1.1//EN" "http://www.w3.org/Graphics/SVG/1.1/DTD/svg11.dtd">
<svg version="1.1" id="Layer_1" xmlns="http://www.w3.org/2000/svg" xmlns:xlink="http://www.w3.org/1999/xlink" x="0px" y="0px"
	 width="250px" height="500px" viewBox="0 0 250 500" style="enable-background:new 0 0 250 500;" xml:space="preserve">
<path class='path-right' style="fill:none;stroke:#FFFFFF;stroke-width:14.1732;stroke-miterlimit:10;" d="M0,10.3c10.3,0.2,24.2,2.9,34.3,8.3
	C82,43.9,129.5,69.5,177,94.9c20.4,10.9,33.2,27.5,37.7,50.3c0.2,1,0,2.3,1.2,2.9c0,66.4,0,132.8,0,199.2c-1.7,1.4-1.3,3.6-1.7,5.3
	c-4.4,20.5-15.6,36.3-33.6,46.7c-47.5,27.5-95.3,54.5-143,81.6c-5.9,3.3-12.3,5.5-18.9,7.1c-1.7,0.4-3.9,0.2-5.3,1.7
	c-4.4,0-8.9,0-13.4,0"/>
</svg>
