<?xml version="1.0" encoding="utf-8"?>
<?xml-stylesheet href="../../css/main.css" type="text/css"?>
<!-- Generator: Adobe Illustrator 16.0.0, SVG Export Plug-In . SVG Version: 6.00 Build 0)  -->
<!DOCTYPE svg PUBLIC "-//W3C//DTD SVG 1.1//EN" "http://www.w3.org/Graphics/SVG/1.1/DTD/svg11.dtd">
<svg version="1.1" id="Layer_1" xmlns="http://www.w3.org/2000/svg" xmlns:xlink="http://www.w3.org/1999/xlink" x="0px" y="0px"
	 width="250px" height="500px" viewBox="0 0 250 500" style="enable-background:new 0 0 250 500;" xml:space="preserve">
<path class='path-left' style="fill:none;stroke:#FFFFFF;stroke-width:14.1732;stroke-miterlimit:10;" d="M250,488.7c-4.5,0-8.9,0-13.4,0
	c-1.5-1.6-3.6-1.4-5.3-1.7c-6.6-1.6-13-3.8-18.9-7.1c-47.7-27.1-95.5-54.1-143-81.6c-18-10.4-29.2-26.2-33.6-46.7
	c-0.4-1.7,0-3.9-1.7-5.3c0-66.4,0-132.8,0-199.2c1.2-0.6,1-1.9,1.2-2.9c4.4-22.9,17.3-39.4,37.7-50.3c47.6-25.4,95-51,142.7-76.3
	c10.1-5.3,24-8.1,34.3-8.3"/>
</svg>
