<?xml version="1.0" encoding="utf-8"?>
<?xml-stylesheet href="../../css/main.css" type="text/css"?>
<!-- Generator: Adobe Illustrator 16.0.0, SVG Export Plug-In . SVG Version: 6.00 Build 0)  -->
<!DOCTYPE svg PUBLIC "-//W3C//DTD SVG 1.1//EN" "http://www.w3.org/Graphics/SVG/1.1/DTD/svg11.dtd">
<svg version="1.1" id="Layer_1" xmlns="http://www.w3.org/2000/svg" xmlns:xlink="http://www.w3.org/1999/xlink" x="0px" y="0px"
	 width="500px" height="500px" viewBox="0 0 500 500" style="enable-background:new 0 0 500 500;" xml:space="preserve">
<g>
	<g>
		<path class='path' style="fill:none;stroke:#FFFFFF;stroke-width:14.1732;stroke-miterlimit:10;" d="M245.6,10.3c10.9-0.2,21.8,2.6,32.5,8.3
			c48.5,25.7,96.9,51.7,145.2,77.8c17.4,9.4,28.7,24,34,43.1c0.9,3.2,0.8,6.6,2.5,9.6c0,65.8,0,131.5,0,197.3
			c-0.3,0.6-0.7,1.1-0.8,1.7c-3.9,24.8-17.8,42.3-39.5,54.5c-27.6,15.5-54.5,31.9-82.4,46.7c-26.8,14.3-51,34-81.7,40.5
			c-6.4,0-12.9,0-19.4,0c-1.5-1.6-3.6-1.4-5.3-1.7c-6.6-1.6-13-3.8-18.9-7.1c-47.7-27.1-95.5-54.1-143-81.6
			c-18-10.4-29.2-26.2-33.6-46.7c-0.4-1.7,0-3.9-1.7-5.3c0-66.4,0-132.8,0-199.2c1.2-0.6,1-1.9,1.2-2.9
			c4.4-22.9,17.3-39.4,37.7-50.3c47.6-25.4,95-51,142.7-76.3C225.1,13.3,235.3,10.5,245.6,10.3"/>
	</g>
</g>
</svg>
