<?xml version="1.0" encoding="utf-8"?>
<!-- Generator: Adobe Illustrator 16.0.0, SVG Export Plug-In . SVG Version: 6.00 Build 0)  -->
<!DOCTYPE svg PUBLIC "-//W3C//DTD SVG 1.1//EN" "http://www.w3.org/Graphics/SVG/1.1/DTD/svg11.dtd">
<svg version="1.1" id="Layer_1" xmlns="http://www.w3.org/2000/svg" xmlns:xlink="http://www.w3.org/1999/xlink" x="0px" y="0px"
	 width="500px" height="500px" viewBox="0 0 500 500" style="enable-background:new 0 0 500 500;" xml:space="preserve">
<g>
	<g>
		<path d="M60.7,136.5c19,1,38.1-3.8,57.1-0.8c9.5,1.5,18.3,5.8,23.9,13.9c9,13,7.7,29.2,2.8,43.4c-4.5,13.1-11.6,24.6-19,36.2
			c-6.2,9.8-12.6,20.3-14.4,31.9c-0.7,4.1-1.3,7.1,2.6,9c4.5,2.3,9.8,3,14.8,3.3c11.5,0.7,23.1-1.8,34.4-3.3
			c14.6-1.9,29-6.2,43.1-10.1c12.8-3.6,26.8-8.8,40.2-8.9c17.5-0.1,22.6,17,23.2,31.5c0.7,15.6-2.4,31.5-6.5,46.4
			c-3.1,11.4-11.4,22.2-6.9,34.4c2.6,7.1,9.9,11.5,16.5,14.5c25.3,11.5,53.9,9.4,80.4,16c18.3,4.6,37.8,7,53.7,17.9
			c8.9,6,16.3,15.1,23.2,23.3c7.6,9,14.2,18.8,19.8,29.2c0.9,1.7,3.5,0.2,2.6-1.5c-6.8-12.8-15.4-24.5-24.9-35.3
			c-8.5-9.6-17.4-18.5-29.1-24c-10.9-5.1-22.9-7.6-34.5-10.2c-8.6-1.9-17-4-25.8-5.2c-19.5-2.6-39.4-4.2-58.1-10.6
			c-8.5-2.9-17.9-7.4-21.3-16.4c-2.5-6.7,0.8-14.3,3.4-20.5c2-4.8,3.8-9.5,5.1-14.5c3.8-15,6.5-30.8,5.5-46.4
			c-0.8-12.7-5.2-26.6-18.6-30.6c-9.3-2.8-19.8,0.5-28.8,2.8c-15,3.7-29.7,8.3-44.7,11.9c-12.6,3-25.7,5-38.6,6.2
			c-6,0.6-12.1,0.8-18.1-0.1c-2.8-0.4-5.6-1.2-8.2-2.4c-2.8-1.2-1.2-5.8-0.8-8.2c1.9-9.9,7.7-19,12.9-27.4
			c5.3-8.6,10.7-16.8,15-25.9c8.9-19,14.3-41.6,0.7-59.9c-8.4-11.2-22.8-14.1-36-14.5c-15.5-0.5-30.8,2.5-46.3,1.7
			C58.7,133.4,58.7,136.4,60.7,136.5L60.7,136.5z"/>
	</g>
</g>
</svg>
