<?xml version="1.0" encoding="utf-8"?>
<!-- Generator: Adobe Illustrator 16.0.0, SVG Export Plug-In . SVG Version: 6.00 Build 0)  -->
<!DOCTYPE svg PUBLIC "-//W3C//DTD SVG 1.1//EN" "http://www.w3.org/Graphics/SVG/1.1/DTD/svg11.dtd">
<svg version="1.1" id="Layer_1" xmlns="http://www.w3.org/2000/svg" xmlns:xlink="http://www.w3.org/1999/xlink" x="0px" y="0px"
	 width="500px" height="500px" viewBox="0 0 500 500" style="enable-background:new 0 0 500 500;" xml:space="preserve">
<g>
	<g>
		<path style="fill:#FFFFFF;" d="M247,4.3c44.5,25.7,89,51.4,133.4,77c12.4,7.1,24.7,14.3,37.1,21.4c9.1,5.3,19.6,9.9,27.8,16.4
			c8.9,7,15.7,19.4,15.7,30.8c0,3.4,0,6.7,0,10.1c0,15.4,0,30.7,0,46.1c0,27,0,54.1,0,81.1c0,15.5,0,31,0,46.4c0,5,0,10,0,14.9
			c0,8.5-3,16.3-7.7,23.4c-6.7,10.3-19,15.5-29.4,21.5c-13.2,7.6-26.4,15.2-39.5,22.8c-23.7,13.7-47.4,27.4-71.1,41
			c-12.9,7.5-25.9,14.9-38.8,22.4c-3.6,2.1-7.1,4.3-11,5.7c-10.3,3.6-23.7,3.2-33.2-2.3c-21.1-12.2-42.1-24.3-63.2-36.5
			c-25.4-14.7-50.8-29.3-76.2-44c-10.9-6.3-21.9-12.6-32.8-19C44.9,376.1,38,361.3,38,346.4c0-56.7,0-113.5,0-170.2
			c0-10.6-1.5-22.6,0.9-33.1c2.3-10.3,9.2-21,18.4-26.4c3.3-1.9,6.6-3.8,9.9-5.7c24.6-14.2,49.2-28.4,73.8-42.6
			C178,47,215,25.7,252,4.3c5.6-3.2,0.5-11.9-5-8.6c-44.5,25.7-89,51.4-133.4,77C101.2,79.9,88.8,87,76.5,94.1
			c-9.2,5.3-19.2,10.1-27.8,16.3C34.4,120.9,28,137.9,28,155.1c0,14.6,0,29.1,0,43.7c0,27.7,0,55.3,0,83c0,14.9,0,29.9,0,44.8
			c0,11.2-1.3,23.4,1.6,34.4c3,11.7,10.6,22.3,20.3,29.4c2.9,2.1,6.2,3.7,9.3,5.5c13.1,7.6,26.2,15.1,39.3,22.7
			c23.6,13.6,47.1,27.2,70.7,40.8c13.3,7.7,26.6,15.4,39.9,23c10.8,6.2,21,13.4,33.7,14.8c10.5,1.2,21.8-0.1,31.1-5.5
			c3.3-1.9,6.6-3.8,9.9-5.7c13.4-7.7,26.8-15.4,40.1-23.2c23.4-13.5,46.7-27,70.1-40.5c13.4-7.8,26.9-15.5,40.3-23.3
			c4-2.3,8-4.6,12-6.9c7.8-4.5,13.7-11.3,18.2-19c7.1-12.4,6.7-25,6.7-38.6c0-15.5,0-31,0-46.5c0-27,0-54,0-81c0-15.4,0-30.8,0-46.2
			c0-3.6,0-7.2,0-10.7c0-11-4.9-22-11.6-30.6c-7.7-9.8-19-15-29.6-21.2c-13.2-7.6-26.5-15.3-39.7-22.9
			C344.3,49,298.6,22.6,252.9-3.8c-0.3-0.2-0.6-0.3-0.9-0.5C246.4-7.5,241.4,1.1,247,4.3L247,4.3z"/>
	</g>
</g>
</svg>
